<mxfile host="app.diagrams.net" modified="2022-04-22T13:31:18.193Z" agent="5.0 (Windows NT 10.0; Win64; x64) AppleWebKit/537.36 (KHTML, like Gecko) Chrome/100.0.4896.127 Safari/537.36" etag="tnPw_vLqBI4yqapBJsk2" version="17.4.6" type="github">
  <diagram id="f9bO8bD8_3tNC-7nvVMG" name="Page-1">
    <mxGraphModel dx="1038" dy="547" grid="1" gridSize="10" guides="1" tooltips="1" connect="1" arrows="1" fold="1" page="1" pageScale="1" pageWidth="1169" pageHeight="1654" math="0" shadow="0">
      <root>
        <mxCell id="0" />
        <mxCell id="1" parent="0" />
        <mxCell id="xalwO71q9SZK32bKhefd-1" value="Système" style="swimlane;fillColor=#647687;fontColor=#ffffff;strokeColor=#314354;" vertex="1" parent="1">
          <mxGeometry x="230" y="65" width="520" height="1005" as="geometry" />
        </mxCell>
        <mxCell id="xalwO71q9SZK32bKhefd-2" value="Consulter les entreprises" style="ellipse;whiteSpace=wrap;html=1;" vertex="1" parent="xalwO71q9SZK32bKhefd-1">
          <mxGeometry x="130" y="40" width="120" height="80" as="geometry" />
        </mxCell>
        <mxCell id="xalwO71q9SZK32bKhefd-3" style="edgeStyle=orthogonalEdgeStyle;rounded=0;orthogonalLoop=1;jettySize=auto;html=1;entryX=1;entryY=0.5;entryDx=0;entryDy=0;dashed=1;startArrow=none;startFill=0;endArrow=classic;endFill=1;strokeColor=#FF8000;strokeWidth=2;exitX=0.997;exitY=0.372;exitDx=0;exitDy=0;exitPerimeter=0;" edge="1" parent="xalwO71q9SZK32bKhefd-1" source="xalwO71q9SZK32bKhefd-4" target="xalwO71q9SZK32bKhefd-20">
          <mxGeometry relative="1" as="geometry" />
        </mxCell>
        <mxCell id="xalwO71q9SZK32bKhefd-4" value="Répondre à une proposition" style="ellipse;whiteSpace=wrap;html=1;" vertex="1" parent="xalwO71q9SZK32bKhefd-1">
          <mxGeometry x="130" y="225" width="120" height="80" as="geometry" />
        </mxCell>
        <mxCell id="xalwO71q9SZK32bKhefd-5" style="edgeStyle=orthogonalEdgeStyle;rounded=0;orthogonalLoop=1;jettySize=auto;html=1;entryX=0.01;entryY=0.326;entryDx=0;entryDy=0;dashed=1;startArrow=none;startFill=0;endArrow=classic;endFill=1;strokeColor=#80FF00;strokeWidth=2;exitX=0;exitY=1;exitDx=0;exitDy=0;entryPerimeter=0;" edge="1" parent="xalwO71q9SZK32bKhefd-1" source="xalwO71q9SZK32bKhefd-9" target="xalwO71q9SZK32bKhefd-6">
          <mxGeometry relative="1" as="geometry">
            <Array as="points">
              <mxPoint x="110" y="483" />
              <mxPoint x="110" y="726" />
            </Array>
          </mxGeometry>
        </mxCell>
        <mxCell id="xalwO71q9SZK32bKhefd-6" value="Gérer une &lt;br&gt;proposition (créer/modifier/&lt;br&gt;supprimer)" style="ellipse;whiteSpace=wrap;html=1;" vertex="1" parent="xalwO71q9SZK32bKhefd-1">
          <mxGeometry x="130" y="695" width="120" height="95" as="geometry" />
        </mxCell>
        <mxCell id="xalwO71q9SZK32bKhefd-7" value="Consulter les profils" style="ellipse;whiteSpace=wrap;html=1;" vertex="1" parent="xalwO71q9SZK32bKhefd-1">
          <mxGeometry x="130" y="905" width="120" height="80" as="geometry" />
        </mxCell>
        <mxCell id="xalwO71q9SZK32bKhefd-8" style="edgeStyle=orthogonalEdgeStyle;rounded=0;orthogonalLoop=1;jettySize=auto;html=1;entryX=0.05;entryY=0.737;entryDx=0;entryDy=0;entryPerimeter=0;dashed=1;startArrow=none;startFill=0;endArrow=classic;endFill=1;strokeColor=#80FF00;strokeWidth=2;exitX=0.017;exitY=0.25;exitDx=0;exitDy=0;exitPerimeter=0;" edge="1" parent="xalwO71q9SZK32bKhefd-1" source="xalwO71q9SZK32bKhefd-9" target="xalwO71q9SZK32bKhefd-16">
          <mxGeometry relative="1" as="geometry">
            <Array as="points">
              <mxPoint x="100" y="435" />
              <mxPoint x="100" y="375" />
            </Array>
          </mxGeometry>
        </mxCell>
        <mxCell id="xalwO71q9SZK32bKhefd-9" value="se connecter" style="ellipse;whiteSpace=wrap;html=1;" vertex="1" parent="xalwO71q9SZK32bKhefd-1">
          <mxGeometry x="130" y="415" width="120" height="80" as="geometry" />
        </mxCell>
        <mxCell id="xalwO71q9SZK32bKhefd-10" style="edgeStyle=orthogonalEdgeStyle;rounded=0;orthogonalLoop=1;jettySize=auto;html=1;entryX=1;entryY=0.5;entryDx=0;entryDy=0;endArrow=classic;endFill=1;strokeColor=#00FF00;strokeWidth=2;exitX=1;exitY=0.5;exitDx=0;exitDy=0;dashed=1;" edge="1" parent="xalwO71q9SZK32bKhefd-1" source="xalwO71q9SZK32bKhefd-11" target="xalwO71q9SZK32bKhefd-9">
          <mxGeometry relative="1" as="geometry" />
        </mxCell>
        <mxCell id="xalwO71q9SZK32bKhefd-11" value="S&#39;inscrire" style="ellipse;whiteSpace=wrap;html=1;" vertex="1" parent="xalwO71q9SZK32bKhefd-1">
          <mxGeometry x="130" y="510" width="120" height="75" as="geometry" />
        </mxCell>
        <mxCell id="xalwO71q9SZK32bKhefd-12" style="edgeStyle=orthogonalEdgeStyle;rounded=0;orthogonalLoop=1;jettySize=auto;html=1;entryX=1;entryY=0.5;entryDx=0;entryDy=0;dashed=1;endArrow=classic;endFill=1;strokeColor=#FF8000;strokeWidth=2;exitX=1;exitY=0.5;exitDx=0;exitDy=0;" edge="1" parent="xalwO71q9SZK32bKhefd-1" source="xalwO71q9SZK32bKhefd-14" target="xalwO71q9SZK32bKhefd-4">
          <mxGeometry relative="1" as="geometry">
            <Array as="points">
              <mxPoint x="330" y="635" />
              <mxPoint x="330" y="265" />
            </Array>
          </mxGeometry>
        </mxCell>
        <mxCell id="xalwO71q9SZK32bKhefd-13" style="edgeStyle=orthogonalEdgeStyle;rounded=0;orthogonalLoop=1;jettySize=auto;html=1;entryX=0;entryY=0.5;entryDx=0;entryDy=0;dashed=1;startArrow=none;startFill=0;endArrow=classic;endFill=1;strokeColor=#FF8000;strokeWidth=2;exitX=1.01;exitY=0.637;exitDx=0;exitDy=0;exitPerimeter=0;" edge="1" parent="xalwO71q9SZK32bKhefd-1" source="xalwO71q9SZK32bKhefd-14" target="xalwO71q9SZK32bKhefd-24">
          <mxGeometry relative="1" as="geometry" />
        </mxCell>
        <mxCell id="xalwO71q9SZK32bKhefd-14" value="Valider un recrutement" style="ellipse;whiteSpace=wrap;html=1;" vertex="1" parent="xalwO71q9SZK32bKhefd-1">
          <mxGeometry x="130" y="595" width="120" height="80" as="geometry" />
        </mxCell>
        <mxCell id="xalwO71q9SZK32bKhefd-15" style="edgeStyle=orthogonalEdgeStyle;rounded=0;orthogonalLoop=1;jettySize=auto;html=1;exitX=1;exitY=0.5;exitDx=0;exitDy=0;entryX=1;entryY=0.5;entryDx=0;entryDy=0;dashed=1;startArrow=none;startFill=0;endArrow=classic;endFill=1;strokeColor=#00FF00;strokeWidth=2;" edge="1" parent="xalwO71q9SZK32bKhefd-1" source="xalwO71q9SZK32bKhefd-16" target="xalwO71q9SZK32bKhefd-7">
          <mxGeometry relative="1" as="geometry">
            <Array as="points">
              <mxPoint x="290" y="355" />
              <mxPoint x="290" y="945" />
            </Array>
          </mxGeometry>
        </mxCell>
        <mxCell id="xalwO71q9SZK32bKhefd-16" value="Gérer son profil&lt;br&gt;(créer/modifier/&lt;br&gt;supprimer)" style="ellipse;whiteSpace=wrap;html=1;" vertex="1" parent="xalwO71q9SZK32bKhefd-1">
          <mxGeometry x="130" y="315" width="120" height="80" as="geometry" />
        </mxCell>
        <mxCell id="xalwO71q9SZK32bKhefd-17" style="edgeStyle=orthogonalEdgeStyle;rounded=0;orthogonalLoop=1;jettySize=auto;html=1;entryX=1;entryY=0.5;entryDx=0;entryDy=0;startArrow=none;startFill=0;endArrow=classic;endFill=1;strokeColor=#00FF00;strokeWidth=2;dashed=1;" edge="1" parent="xalwO71q9SZK32bKhefd-1" source="xalwO71q9SZK32bKhefd-19" target="xalwO71q9SZK32bKhefd-2">
          <mxGeometry relative="1" as="geometry">
            <Array as="points">
              <mxPoint x="280" y="845" />
              <mxPoint x="280" y="80" />
            </Array>
          </mxGeometry>
        </mxCell>
        <mxCell id="xalwO71q9SZK32bKhefd-18" style="edgeStyle=orthogonalEdgeStyle;rounded=0;orthogonalLoop=1;jettySize=auto;html=1;entryX=0.967;entryY=0.342;entryDx=0;entryDy=0;entryPerimeter=0;dashed=1;startArrow=none;startFill=0;endArrow=classic;endFill=1;strokeColor=#80FF00;strokeWidth=2;exitX=1.017;exitY=0.668;exitDx=0;exitDy=0;exitPerimeter=0;" edge="1" parent="xalwO71q9SZK32bKhefd-1" source="xalwO71q9SZK32bKhefd-9" target="xalwO71q9SZK32bKhefd-19">
          <mxGeometry relative="1" as="geometry">
            <Array as="points">
              <mxPoint x="260" y="468" />
              <mxPoint x="260" y="832" />
            </Array>
          </mxGeometry>
        </mxCell>
        <mxCell id="xalwO71q9SZK32bKhefd-19" value="Gérer son entreprise&lt;br&gt;(créer/modifier/&lt;br&gt;supprimer)" style="ellipse;whiteSpace=wrap;html=1;" vertex="1" parent="xalwO71q9SZK32bKhefd-1">
          <mxGeometry x="124" y="805" width="120" height="80" as="geometry" />
        </mxCell>
        <mxCell id="xalwO71q9SZK32bKhefd-20" value="Consulter les propositions" style="ellipse;whiteSpace=wrap;html=1;" vertex="1" parent="xalwO71q9SZK32bKhefd-1">
          <mxGeometry x="130" y="135" width="120" height="80" as="geometry" />
        </mxCell>
        <mxCell id="xalwO71q9SZK32bKhefd-21" value="Extend" style="text;html=1;strokeColor=none;fillColor=none;align=center;verticalAlign=middle;whiteSpace=wrap;rounded=0;" vertex="1" parent="xalwO71q9SZK32bKhefd-1">
          <mxGeometry x="250" y="480" width="60" height="30" as="geometry" />
        </mxCell>
        <mxCell id="xalwO71q9SZK32bKhefd-22" value="Include" style="text;html=1;strokeColor=none;fillColor=none;align=center;verticalAlign=middle;whiteSpace=wrap;rounded=0;" vertex="1" parent="xalwO71q9SZK32bKhefd-1">
          <mxGeometry x="295" y="425" width="60" height="30" as="geometry" />
        </mxCell>
        <mxCell id="xalwO71q9SZK32bKhefd-23" value="Include" style="text;html=1;strokeColor=none;fillColor=none;align=center;verticalAlign=middle;whiteSpace=wrap;rounded=0;" vertex="1" parent="xalwO71q9SZK32bKhefd-1">
          <mxGeometry x="235" y="200" width="60" height="30" as="geometry" />
        </mxCell>
        <mxCell id="xalwO71q9SZK32bKhefd-24" value="Mettre à jour la proposition" style="ellipse;whiteSpace=wrap;html=1;" vertex="1" parent="xalwO71q9SZK32bKhefd-1">
          <mxGeometry x="355" y="605" width="120" height="80" as="geometry" />
        </mxCell>
        <mxCell id="xalwO71q9SZK32bKhefd-25" value="Extend" style="text;html=1;strokeColor=none;fillColor=none;align=center;verticalAlign=middle;whiteSpace=wrap;rounded=0;" vertex="1" parent="xalwO71q9SZK32bKhefd-1">
          <mxGeometry x="70" y="585" width="60" height="30" as="geometry" />
        </mxCell>
        <mxCell id="xalwO71q9SZK32bKhefd-26" value="Extend" style="text;html=1;strokeColor=none;fillColor=none;align=center;verticalAlign=middle;whiteSpace=wrap;rounded=0;" vertex="1" parent="xalwO71q9SZK32bKhefd-1">
          <mxGeometry x="70" y="385" width="60" height="30" as="geometry" />
        </mxCell>
        <mxCell id="xalwO71q9SZK32bKhefd-27" style="edgeStyle=orthogonalEdgeStyle;rounded=0;orthogonalLoop=1;jettySize=auto;html=1;entryX=0;entryY=0.6;entryDx=0;entryDy=0;entryPerimeter=0;endArrow=none;endFill=0;strokeColor=#0000FF;strokeWidth=2;" edge="1" parent="1" source="xalwO71q9SZK32bKhefd-33" target="xalwO71q9SZK32bKhefd-11">
          <mxGeometry relative="1" as="geometry">
            <Array as="points">
              <mxPoint x="260" y="700" />
              <mxPoint x="260" y="620" />
            </Array>
          </mxGeometry>
        </mxCell>
        <mxCell id="xalwO71q9SZK32bKhefd-28" style="edgeStyle=orthogonalEdgeStyle;rounded=0;orthogonalLoop=1;jettySize=auto;html=1;entryX=0.003;entryY=0.678;entryDx=0;entryDy=0;entryPerimeter=0;endArrow=none;endFill=0;strokeColor=#0000FF;strokeWidth=2;startArrow=none;startFill=0;" edge="1" parent="1" source="xalwO71q9SZK32bKhefd-33" target="xalwO71q9SZK32bKhefd-9">
          <mxGeometry relative="1" as="geometry">
            <Array as="points">
              <mxPoint x="260" y="700" />
              <mxPoint x="260" y="534" />
            </Array>
          </mxGeometry>
        </mxCell>
        <mxCell id="xalwO71q9SZK32bKhefd-29" style="edgeStyle=orthogonalEdgeStyle;rounded=0;orthogonalLoop=1;jettySize=auto;html=1;startArrow=none;startFill=0;endArrow=none;endFill=0;strokeColor=#0000FF;strokeWidth=2;" edge="1" parent="1" source="xalwO71q9SZK32bKhefd-33" target="xalwO71q9SZK32bKhefd-14">
          <mxGeometry relative="1" as="geometry" />
        </mxCell>
        <mxCell id="xalwO71q9SZK32bKhefd-30" style="edgeStyle=orthogonalEdgeStyle;rounded=0;orthogonalLoop=1;jettySize=auto;html=1;entryX=0;entryY=0.5;entryDx=0;entryDy=0;startArrow=none;startFill=0;endArrow=none;endFill=0;strokeColor=#0000FF;strokeWidth=2;" edge="1" parent="1" source="xalwO71q9SZK32bKhefd-33" target="xalwO71q9SZK32bKhefd-6">
          <mxGeometry relative="1" as="geometry">
            <Array as="points">
              <mxPoint x="260" y="700" />
              <mxPoint x="260" y="808" />
            </Array>
          </mxGeometry>
        </mxCell>
        <mxCell id="xalwO71q9SZK32bKhefd-31" style="edgeStyle=orthogonalEdgeStyle;rounded=0;orthogonalLoop=1;jettySize=auto;html=1;entryX=0;entryY=0.5;entryDx=0;entryDy=0;startArrow=none;startFill=0;endArrow=none;endFill=0;strokeColor=#0000FF;strokeWidth=2;" edge="1" parent="1" source="xalwO71q9SZK32bKhefd-33" target="xalwO71q9SZK32bKhefd-19">
          <mxGeometry relative="1" as="geometry">
            <Array as="points">
              <mxPoint x="260" y="700" />
              <mxPoint x="260" y="910" />
            </Array>
          </mxGeometry>
        </mxCell>
        <mxCell id="xalwO71q9SZK32bKhefd-32" style="edgeStyle=orthogonalEdgeStyle;rounded=0;orthogonalLoop=1;jettySize=auto;html=1;entryX=0;entryY=0.5;entryDx=0;entryDy=0;startArrow=none;startFill=0;endArrow=none;endFill=0;strokeColor=#0000FF;strokeWidth=2;" edge="1" parent="1" source="xalwO71q9SZK32bKhefd-33" target="xalwO71q9SZK32bKhefd-7">
          <mxGeometry relative="1" as="geometry">
            <Array as="points">
              <mxPoint x="260" y="700" />
              <mxPoint x="260" y="1010" />
            </Array>
          </mxGeometry>
        </mxCell>
        <mxCell id="xalwO71q9SZK32bKhefd-33" value="Recruteur" style="shape=umlActor;verticalLabelPosition=bottom;verticalAlign=top;html=1;outlineConnect=0;fillColor=#dae8fc;strokeColor=#6c8ebf;" vertex="1" parent="1">
          <mxGeometry x="100" y="670" width="30" height="60" as="geometry" />
        </mxCell>
        <mxCell id="xalwO71q9SZK32bKhefd-34" style="edgeStyle=orthogonalEdgeStyle;rounded=0;orthogonalLoop=1;jettySize=auto;html=1;entryX=0;entryY=0.5;entryDx=0;entryDy=0;strokeColor=#FF0000;strokeWidth=2;endArrow=none;endFill=0;" edge="1" parent="1" source="xalwO71q9SZK32bKhefd-40" target="xalwO71q9SZK32bKhefd-2">
          <mxGeometry relative="1" as="geometry" />
        </mxCell>
        <mxCell id="xalwO71q9SZK32bKhefd-35" style="edgeStyle=orthogonalEdgeStyle;rounded=0;orthogonalLoop=1;jettySize=auto;html=1;entryX=0;entryY=0.5;entryDx=0;entryDy=0;endArrow=none;endFill=0;strokeColor=#FF0000;strokeWidth=2;" edge="1" parent="1" source="xalwO71q9SZK32bKhefd-40" target="xalwO71q9SZK32bKhefd-20">
          <mxGeometry relative="1" as="geometry" />
        </mxCell>
        <mxCell id="xalwO71q9SZK32bKhefd-36" style="edgeStyle=orthogonalEdgeStyle;rounded=0;orthogonalLoop=1;jettySize=auto;html=1;entryX=0;entryY=0.5;entryDx=0;entryDy=0;endArrow=none;endFill=0;strokeColor=#FF0000;strokeWidth=2;" edge="1" parent="1" source="xalwO71q9SZK32bKhefd-40" target="xalwO71q9SZK32bKhefd-4">
          <mxGeometry relative="1" as="geometry" />
        </mxCell>
        <mxCell id="xalwO71q9SZK32bKhefd-37" style="edgeStyle=orthogonalEdgeStyle;rounded=0;orthogonalLoop=1;jettySize=auto;html=1;entryX=0;entryY=0.5;entryDx=0;entryDy=0;endArrow=none;endFill=0;strokeColor=#FF0000;strokeWidth=2;" edge="1" parent="1" source="xalwO71q9SZK32bKhefd-40" target="xalwO71q9SZK32bKhefd-16">
          <mxGeometry relative="1" as="geometry" />
        </mxCell>
        <mxCell id="xalwO71q9SZK32bKhefd-38" style="edgeStyle=orthogonalEdgeStyle;rounded=0;orthogonalLoop=1;jettySize=auto;html=1;entryX=0;entryY=0.5;entryDx=0;entryDy=0;endArrow=none;endFill=0;strokeColor=#FF0000;strokeWidth=2;" edge="1" parent="1" source="xalwO71q9SZK32bKhefd-40" target="xalwO71q9SZK32bKhefd-9">
          <mxGeometry relative="1" as="geometry" />
        </mxCell>
        <mxCell id="xalwO71q9SZK32bKhefd-39" style="edgeStyle=orthogonalEdgeStyle;rounded=0;orthogonalLoop=1;jettySize=auto;html=1;entryX=0;entryY=0.5;entryDx=0;entryDy=0;endArrow=none;endFill=0;strokeColor=#FF0000;strokeWidth=2;" edge="1" parent="1" source="xalwO71q9SZK32bKhefd-40" target="xalwO71q9SZK32bKhefd-11">
          <mxGeometry relative="1" as="geometry" />
        </mxCell>
        <mxCell id="xalwO71q9SZK32bKhefd-40" value="Développeur" style="shape=umlActor;verticalLabelPosition=bottom;verticalAlign=top;html=1;outlineConnect=0;fillColor=#f8cecc;strokeColor=#b85450;strokeWidth=1;" vertex="1" parent="1">
          <mxGeometry x="100" y="350" width="30" height="60" as="geometry" />
        </mxCell>
      </root>
    </mxGraphModel>
  </diagram>
</mxfile>
